<svg t="1709558783945" class="icon" viewBox="0 0 1024 1024" version="1.1" xmlns="http://www.w3.org/2000/svg" p-id="3109" width="200" height="200"><path d="M970.752 579.072c-0.512 4.608-1.536 9.216-2.56 14.336-1.024 6.144-14.848 68.608-75.264 88.576-1.024 0.512-2.048 1.024-3.072 1.024-8.704 3.072-6.656 9.216-5.12 12.8 0.512 1.024 0.512 1.536 0.512 2.56 22.016 59.392-17.408 109.056-21.504 113.664-36.352 45.056-77.312 57.344-112.128 54.272-14.848-22.528-28.672-43.52-38.912-57.856-3.072-4.608-5.632-8.192-8.192-11.264v5.12c0.512 12.288 1.024 30.72 1.536 51.712-8.192-4.096-15.36-8.192-21.504-12.8-20.48-13.824-51.712-57.856-90.624-115.712 1.536 66.048 0.512 129.536-6.656 153.088-8.704 35.328-44.544 93.184-120.832 93.184-11.264 0-23.552-1.536-36.864-4.096-5.632-1.024-68.096-14.848-88.064-74.24-0.512-1.024-1.024-2.56-1.536-3.584-3.072-8.704-9.216-6.656-12.8-5.12-0.512 0-1.024 0.512-2.048 0.512-6.656 2.56-13.312 4.096-19.456 5.12 5.12-27.648 19.456-46.592 19.456-46.592 0.512-1.024 1.536-2.048 2.048-3.072 1.536-2.048 2.56-4.096 4.096-6.144 31.744-44.544 10.24-105.984-42.496-120.32-4.608-1.024-8.704-2.56-13.312-4.096 0 0-22.016-5.12-43.008-22.528-10.24-8.192-19.968-19.456-27.136-34.816 16.896-18.944 36.864-36.352 57.856-51.712-22.016 1.024-44.544 0.512-66.56-2.048 0.512-7.68 1.536-15.36 3.584-23.552 0 0 1.536-7.68 6.144-18.432 7.68-18.432 24.576-46.08 58.88-56.32 0 0 29.696-9.728 19.456-40.96h0.512C263.168 407.552 302.08 361.984 302.08 361.984c35.84-44.032 73.728-51.2 102.912-46.592 29.184 4.608 49.152 19.968 49.152 19.968l9.216 6.144c4.096 3.072 8.192 5.12 12.288 7.168 43.008 19.968 94.72-2.048 107.52-50.176 1.024-4.608 2.56-9.216 4.096-13.312 0 0 23.552-98.816 134.656-75.264 0 0 58.88 11.264 74.752 65.024 0 0 5.12 14.848 18.944 19.968 5.632 2.048 12.8 2.56 22.016-0.512v0.512c8.704-3.584 17.408-5.632 25.088-6.144-4.096 19.968-13.312 37.376-22.016 49.152-20.48 32.256-50.176 60.416-82.432 83.968 40.448-2.048 82.432 1.024 119.296 13.312 21.504 5.12 51.2 20.48 71.168 48.64-14.848 33.792-5.632 72.704 22.016 95.232z" fill="#f4ea2a" p-id="3110" data-spm-anchor-id="a313x.manage_type_myprojects.0.i16.6a393a81HHb3gP" class="selected"></path><path d="M950.272 484.352c-19.968-28.16-49.664-43.52-71.168-48.64-37.376-12.288-78.848-15.36-119.296-13.312 31.744-23.552 61.952-51.712 82.432-83.968 8.704-11.776 17.408-28.672 22.016-49.152 8.192-37.888 1.024-86.528-52.224-129.024-4.608-4.096-54.272-43.008-113.664-21.504-1.024 0-2.048 0.512-2.56 0.512-4.096 1.536-9.728 3.072-12.8-5.12-0.512-1.536-1.024-2.56-1.536-3.584-20.48-59.392-82.432-73.216-88.064-74.24C491.52 34.304 445.952 103.936 435.712 144.896c-12.288 36.864-15.36 78.848-13.312 119.808-23.552-31.744-52.224-61.952-84.48-82.432-33.792-25.088-112.64-50.688-178.176 30.208-4.096 4.608-43.52 54.272-21.504 113.664 0 1.024 0.512 1.536 0.512 2.56 1.536 4.096 3.072 9.728-5.12 12.8-1.536 0.512-2.56 1.024-3.584 1.536-59.392 20.48-73.216 82.432-74.24 88.064-21.504 101.888 48.128 146.944 89.088 157.184 16.896 5.632 34.816 9.216 53.248 11.264 22.016 2.56 44.544 3.072 66.56 2.048-20.48 15.36-40.448 32.768-57.856 51.712-9.216 10.24-17.408 20.992-24.576 32.256-25.088 33.792-50.688 112.64 30.208 178.176 4.096 3.584 44.032 35.328 94.72 26.624 6.144-1.024 12.8-2.56 19.456-5.12 0.512 0 1.024-0.512 2.048-0.512 4.096-1.536 9.728-3.072 12.8 5.12 0.512 1.536 1.024 2.56 1.536 3.584 20.48 59.392 82.432 73.216 88.064 74.24 13.312 2.56 25.088 4.096 36.864 4.096 76.288 0 112.128-57.856 120.832-93.184 7.168-23.552 8.192-87.04 6.656-153.088 38.4 57.856 70.144 101.888 90.624 115.712 5.632 4.608 12.8 8.704 21.504 12.8 12.8 6.144 28.16 10.752 45.056 11.776 34.816 2.56 75.776-9.216 112.128-54.272 4.096-4.608 43.52-54.784 21.504-113.664 0-1.024-0.512-1.536-0.512-2.56-1.536-4.096-3.072-9.728 5.12-12.8 1.024-0.512 2.048-0.512 3.072-1.024 60.416-19.968 74.24-82.432 75.264-88.576 1.024-4.608 2.048-9.728 2.56-14.336 4.608-40.448-5.632-71.68-21.504-94.208z m-24.064 99.84c-0.512 0-0.512 0.512 0 0 0 1.024-8.704 45.056-49.152 57.344-1.536 0.512-3.584 1.024-5.12 2.048-7.168 3.072-18.944 10.24-26.112 24.576-4.096 7.68-7.68 19.968-3.584 36.352 0 2.048 0.512 4.096 1.536 6.144 15.872 37.888-12.288 72.192-13.312 73.728 0 0-0.512 0-0.512 0.512-51.2 63.488-105.472 31.744-117.248 23.552-1.024-0.512-1.536-1.024-1.536-1.024-0.512-0.512-1.024-0.512-1.536-1.024-1.536-1.024-2.56-2.048-4.096-3.584-19.456-17.92-61.952-81.92-86.016-117.76-12.8-19.456-24.064-36.352-31.232-45.568-5.632-7.68-15.36-10.24-24.576-7.168-8.704 3.072-14.848 11.776-14.336 20.992 4.608 111.104 3.584 194.56-2.56 212.992 0 0.512-0.512 1.024-0.512 2.048-2.048 7.68-21.504 75.776-107.008 57.856h-0.512c-0.512 0-45.056-8.704-56.832-48.64-0.512-1.536-1.024-3.072-2.048-4.608-7.168-16.384-25.088-34.816-52.224-31.744l-9.216 1.536c-2.048 0-4.096 0.512-5.632 1.536-37.888 15.872-72.192-11.776-73.728-13.312l-0.512-0.512c-68.096-54.784-27.136-112.64-22.528-119.296 0.512-0.512 1.024-1.024 1.024-1.536 4.608-7.168 9.728-14.336 15.872-21.504 36.864-44.032 93.696-79.36 137.728-101.888 9.728-5.12 13.824-16.384 10.24-26.112-3.584-10.24-14.336-15.872-24.576-13.824-55.808 11.776-107.52 15.872-149.504 11.264-18.432-2.048-34.816-5.12-49.664-10.24-0.512 0-1.536-0.512-2.048-0.512-7.68-2.048-75.776-21.504-57.856-107.008v-0.512c0-0.512 8.704-45.056 48.64-56.832 1.536-0.512 3.072-1.024 4.608-2.048 6.656-3.072 19.456-10.24 26.624-24.576 4.096-7.68 7.68-20.48 3.584-36.864 0-2.048-0.512-4.096-1.536-6.144-15.872-37.888 12.288-72.192 13.312-73.728 0 0 0-0.512 0.512-0.512 54.784-67.584 112.64-27.136 119.296-22.528 0.512 0.512 1.024 1.024 1.536 1.024 30.72 19.456 61.952 53.248 91.136 97.792 11.264 16.896 22.016 35.328 32.256 55.296 5.12 9.728 16.384 13.824 26.112 10.24 10.24-3.584 15.872-14.336 13.824-24.576l-1.536-7.68c-15.36-77.312-15.36-145.408 0.512-191.488 0-0.512 0.512-1.536 0.512-2.048 1.024-3.072 18.944-76.288 107.008-57.856h0.512c0.512 0 45.056 8.704 56.832 48.64 0.512 1.536 1.024 3.072 2.048 4.608 3.072 6.656 10.24 19.456 24.576 26.624 7.68 4.096 19.968 7.68 36.352 3.584 2.048 0 4.608-0.512 6.656-1.536 37.888-15.872 72.192 11.776 73.728 12.8l0.512 0.512c48.128 38.912 41.472 79.36 32.256 101.888-4.096 9.216-8.192 15.36-9.728 16.896-0.512 0.512-1.024 1.024-1.024 1.536-26.624 42.496-80.896 86.016-153.6 123.392-9.728 5.12-13.824 16.384-10.24 26.624 3.584 10.24 14.336 15.872 24.576 13.824 80.384-16.896 151.04-17.408 199.168-1.024 0.512 0 1.024 0.512 1.536 0.512 8.192 3.584 76.288 23.04 58.368 108.544z" p-id="3111"></path></svg>