<svg t="1709542372720" class="icon" viewBox="0 0 1024 1024" version="1.1" xmlns="http://www.w3.org/2000/svg" p-id="4396" width="200" height="200"><path d="M486.402371 379.859658V516.047045c52.195166 11.798907 98.590869 31.197111 147.186368 44.59587v-136.387368c-51.995184-11.598926-98.79085-30.997129-147.186368-44.395889z m446.558641-245.977218c-68.593647 31.797055-152.985831 63.794092-233.97833 63.794092C591.992591 197.676532 503.400796 128.082977 368.61328 128.082977c-49.99537 0-94.591239 8.799185-135.987405 23.997778 5.599481-14.598648 8.199241-30.397185 7.199333-47.195629C236.225541 48.090386 189.629857 2.494609 132.635136 0.094831 68.641063-2.504928 16.045934 48.69033 16.045934 112.084459c0 37.996481 18.99824 71.593369 47.995555 91.791499V976.004445c0 26.597537 21.398018 47.995555 47.995554 47.995555h31.997037c26.597537 0 47.995555-21.398018 47.995555-47.995555v-188.782515c56.594758-24.197759 127.18822-44.195907 228.778811-44.195907 107.190072 0 195.581886 69.593554 330.369402 69.593554 96.391073 0 173.383942-32.596981 244.977311-81.792424 17.398389-11.998889 27.597444-31.597074 27.597444-52.79511V191.877069c0.199981-46.595684-48.395518-77.592814-90.791591-57.994629zM339.216003 651.034543c-51.595221 5.3995-99.990739 16.398481-147.186368 33.196925v-140.986942c52.395147-18.598277 94.991202-29.997222 147.186368-34.796777zM927.961475 382.059455c-47.195629 19.598185-92.591424 38.996388-147.186368 47.795573V572.041859c49.595407-6.79937 102.79048-23.597814 147.186368-51.995184v140.986942c-50.195351 32.197018-96.991017 49.395425-147.186368 54.194981V572.041859c-53.994999 7.399315-95.791128 2.999722-147.186368-11.198963v134.787517c-47.795573-14.798629-94.591239-33.396907-147.186368-42.596055V516.047045c-39.396351-8.799185-81.592443-13.598741-147.186368-7.599296v-139.987035c-44.795851 6.199426-89.191739 20.398111-147.186368 41.796129v-140.986942c66.393851-24.39774 100.190721-39.596333 147.186368-43.995925v143.186738c53.994999-7.399315 96.791035-2.599759 147.186368 11.398944v-134.787516c47.39561 14.798629 94.391258 33.396907 147.186368 42.596055v136.787331c47.39561 10.599018 95.191184 13.798722 147.186368 5.3995V286.068345c53.994999-9.599111 104.590313-27.197481 147.186368-44.995832z" p-id="4397" fill="currentColor"></path></svg>