<svg t="1709558808187" class="icon" viewBox="0 0 1024 1024" version="1.1" xmlns="http://www.w3.org/2000/svg" p-id="3309" width="200" height="200"><path d="M743.02439 187.317073m-149.853658 0a149.853659 149.853659 0 1 0 299.707317 0 149.853659 149.853659 0 1 0-299.707317 0Z" fill="#F0F9FF" p-id="3310"></path><path d="M743.02439 362.146341a174.829268 174.829268 0 1 1 174.829269-174.829268 174.829268 174.829268 0 0 1-174.829269 174.829268z m0-299.707317a124.878049 124.878049 0 1 0 124.878049 124.878049A124.878049 124.878049 0 0 0 743.02439 62.439024z" fill="#622C47" p-id="3311"></path><path d="M743.02439 187.317073m-99.902439 0a99.902439 99.902439 0 1 0 199.804878 0 99.902439 99.902439 0 1 0-199.804878 0Z" fill="#FFD45F" p-id="3312"></path><path d="M655.609756 999.02439H231.02439a49.95122 49.95122 0 0 1-49.951219-48.327805L156.097561 212.292683h574.439024l-24.975609 738.403902A49.95122 49.95122 0 0 1 655.609756 999.02439z" fill="#FFECD4" p-id="3313"></path><path d="M655.609756 1024H231.02439a74.926829 74.926829 0 0 1-74.926829-72.429268L131.121951 213.166829A24.97561 24.97561 0 0 1 156.097561 187.317073h574.439024a24.97561 24.97561 0 0 1 24.97561 25.849756L730.536585 951.570732a74.926829 74.926829 0 0 1-74.926829 72.429268zM181.073171 237.268293l24.975609 712.679024A24.97561 24.97561 0 0 0 231.02439 974.04878h424.585366a24.97561 24.97561 0 0 0 24.97561-24.101463L704.686829 237.268293z" fill="#622C47" p-id="3314"></path><path d="M171.457561 674.341463L181.073171 950.696585A49.95122 49.95122 0 0 0 231.02439 999.02439h424.585366a49.95122 49.95122 0 0 0 49.95122-48.327805L715.176585 674.341463z" fill="#FF715E" p-id="3315"></path><path d="M655.609756 1024H231.02439a74.926829 74.926829 0 0 1-74.926829-72.429268l-9.61561-276.355122a24.97561 24.97561 0 0 1 6.993171-18.232195A24.97561 24.97561 0 0 1 171.457561 649.365854h543.719024a24.97561 24.97561 0 0 1 17.982439 7.617561 24.97561 24.97561 0 0 1 6.993171 18.232195L730.536585 951.570732a74.926829 74.926829 0 0 1-74.926829 72.429268zM197.307317 699.317073L206.04878 949.947317A24.97561 24.97561 0 0 0 231.02439 974.04878h424.585366a24.97561 24.97561 0 0 0 24.97561-24.101463L689.451707 699.317073z" fill="#622C47" p-id="3316"></path><path d="M393.365854 24.97561v649.365853h-99.902439V24.97561z" fill="#FFFFFF" p-id="3317"></path><path d="M393.365854 174.08l-99.902439 47.953171V110.267317L393.365854 62.439024v111.640976zM393.365854 381.627317l-99.902439 47.828293v-111.765854l99.902439-47.828293v111.765854zM393.365854 589.049756L293.463415 636.878049v-111.640976l99.902439-47.953171v111.765854z" fill="#E55555" p-id="3318"></path><path d="M393.365854 699.317073h-99.902439a24.97561 24.97561 0 0 1-24.97561-24.97561V24.97561a24.97561 24.97561 0 0 1 24.97561-24.97561h99.902439a24.97561 24.97561 0 0 1 24.975609 24.97561v649.365853a24.97561 24.97561 0 0 1-24.975609 24.97561z m-74.92683-49.951219h49.95122V49.95122h-49.95122z" fill="#622C47" p-id="3319"></path><path d="M318.439024 187.317073h49.95122v49.95122h-49.95122z" fill="#622C47" p-id="3320"></path><path d="M131.121951 162.341463h624.390244v74.92683H131.121951z" fill="#FFFFFF" p-id="3321"></path><path d="M755.512195 262.243902H131.121951a24.97561 24.97561 0 0 1-24.97561-24.975609v-74.92683a24.97561 24.97561 0 0 1 24.97561-24.975609h624.390244a24.97561 24.97561 0 0 1 24.97561 24.975609v74.92683a24.97561 24.97561 0 0 1-24.97561 24.975609zM156.097561 212.292683h574.439024v-24.97561H156.097561z" fill="#622C47" p-id="3322"></path></svg>